<svg width="29" height="29" viewBox="0 0 29 29" fill="none" xmlns="http://www.w3.org/2000/svg">
<path d="M21.2132 7.07107C19.8146 5.67255 18.0328 4.72014 16.093 4.33429C14.1532 3.94843 12.1425 4.14647 10.3153 4.90334C8.488 5.66022 6.92621 6.94194 5.8274 8.58644C4.72858 10.2309 4.14209 12.1643 4.14209 14.1421C4.14209 16.12 4.72858 18.0534 5.8274 19.6978C6.92621 21.3423 8.488 22.6241 10.3153 23.3809C12.1425 24.1378 14.1532 24.3358 16.093 23.95C18.0328 23.5641 19.8146 22.6117 21.2132 21.2132C22.1417 20.2846 22.8783 19.1822 23.3809 17.969C23.8834 16.7557 24.1421 15.4554 24.1421 14.1421C24.1421 12.8289 23.8834 11.5286 23.3809 10.3153C22.8783 9.10205 22.1417 7.99966 21.2132 7.07107ZM16.9705 18.3848L14.1421 15.5564L11.3137 18.3848L9.89945 16.9706L12.7279 14.1421L9.89945 11.3137L11.3137 9.8995L14.1421 12.7279L16.9705 9.8995L18.3847 11.3137L15.5563 14.1421L18.3847 16.9706L16.9705 18.3848Z" fill="#C8C8C8"/>
</svg>
