<svg width="237" height="34" viewBox="0 0 237 34" fill="none" xmlns="http://www.w3.org/2000/svg">
<path d="M74.2078 29.0506C77.8322 29.0506 79.9777 27.9207 81.9136 25.8578L80.3839 24.2138C80.111 23.9663 79.8444 23.7759 79.6032 23.668C79.0827 23.4395 78.6574 23.6235 78.2512 23.8965C78.1432 23.979 78.0353 24.0552 77.9274 24.1313C76.9118 24.8232 75.8264 25.2358 74.3475 25.2358C71.123 25.2358 68.895 22.5508 68.895 19.3327C68.895 16.0574 71.1738 13.4296 74.3475 13.4296C75.7503 13.4296 76.7659 13.7596 77.6989 14.3563C77.902 14.4832 78.0988 14.6229 78.2956 14.7752C78.6066 14.9466 78.943 15.0228 79.3429 14.8514C79.9523 14.5911 80.6949 13.766 81.4566 12.8964L81.4947 12.8519L81.5328 12.8075L81.5709 12.7631L81.609 12.7186L81.647 12.6742C79.9015 10.9541 77.9147 9.61475 74.3729 9.61475C61.3479 9.61475 61.4876 29.0506 74.2142 29.0506H74.2078ZM92.0886 29.0506C97.8838 29.0506 102.105 24.6772 102.105 19.3327C102.105 13.9373 97.9409 9.61475 92.1457 9.61475C86.3505 9.61475 82.1358 13.9881 82.1358 19.3327C82.1358 24.728 86.2997 29.0506 92.0949 29.0506H92.0886ZM92.1393 25.2358C88.8133 25.2358 86.4457 22.5508 86.4457 19.3327C86.4457 16.0574 88.7562 13.4296 92.0822 13.4296C95.4083 13.4296 97.7758 16.1145 97.7758 19.3327C97.7758 22.6079 95.4654 25.2358 92.1393 25.2358ZM115.257 21.5923C115.428 21.9668 115.587 22.354 115.745 22.7539C115.904 22.3477 116.069 21.9542 116.241 21.5733C116.412 21.1925 116.596 20.8243 116.78 20.4625L121.934 10.3066C122.023 10.1289 122.118 9.99559 122.22 9.90038C122.315 9.80517 122.423 9.73535 122.544 9.68457C122.664 9.64014 122.797 9.61475 122.95 9.61475H123.483H127.038V29.0506H122.931V18.133C122.931 17.5744 122.956 16.9651 123.013 16.3113L117.694 26.6386C117.529 26.9623 117.307 27.2035 117.028 27.3685C116.748 27.5335 116.425 27.6161 116.069 27.6161H115.434C115.079 27.6161 114.755 27.5335 114.476 27.3685C114.197 27.2035 113.975 26.9623 113.809 26.6386L108.459 16.2986C108.497 16.6223 108.522 16.9397 108.541 17.2571C108.56 17.5744 108.566 17.8664 108.566 18.133V29.0506H104.46V9.61475H108.014H108.547C108.7 9.61475 108.833 9.64014 108.954 9.68457C109.074 9.729 109.182 9.79882 109.277 9.90038C109.373 9.99559 109.468 10.1289 109.557 10.3066L114.724 20.5069C114.908 20.856 115.085 21.2179 115.257 21.5987V21.5923ZM47.2313 29.0442H42.6992V9.6084H47.2313V29.0442ZM64.5788 9.6084V13.182H59.1073V29.0379H54.6006V13.182H49.1355V9.6084H64.5788Z" fill="#333333"/>
<path fill-rule="evenodd" clip-rule="evenodd" d="M142.995 32.8208C143.281 32.8208 143.509 32.5923 143.509 32.3067V5.33647C143.509 5.05083 143.281 4.82233 142.995 4.82233C142.709 4.82233 142.481 5.05083 142.481 5.33647V32.3067C142.481 32.5923 142.709 32.8208 142.995 32.8208Z" fill="#333333"/>
<path d="M159.79 15.6574H161.231V13.6516L161.986 12.8645L164.018 15.651H165.75L162.964 11.8807L165.63 9.10049H163.891L161.231 11.9632V9.10049H159.79V15.651V15.6574ZM165.668 15.6574H167.141L167.737 14.1911H170.505L171.101 15.6574H172.606L169.8 9.05606H168.474L165.668 15.6574ZM168.251 12.9153L169.121 10.7889L169.991 12.9153H168.251ZM174.675 10.4081H178.261V9.10684H173.234V15.6574H176.268C177.785 15.6574 178.712 14.9147 178.712 13.5818C178.712 12.3567 177.887 11.5506 176.408 11.5506H174.675V10.4081ZM176.255 12.7503C176.941 12.7503 177.265 13.0232 177.265 13.5247C177.265 14.0959 176.935 14.3562 176.262 14.3562H174.669V12.7439H176.249L176.255 12.7503ZM185.148 9.10684H183.809L180.927 13.4041V9.10684H179.505V15.6574H180.864L183.726 11.3602V15.6574H185.148V9.10684ZM186.329 15.6574H187.77V13.0296H190.429V15.6574H191.87V9.10684H190.429V11.6966H187.77V9.10684H186.329V15.6574ZM193.051 15.6574H198.04V14.3752H194.485V12.9978H197.576V11.7156H194.485V10.389H197.995V9.10684H193.051V15.6574ZM200.458 15.6574H201.899V10.4335H203.892V9.10684H198.465V10.4335H200.458V15.6574ZM159.784 28.549H161.225V23.2997H163.808V28.549H165.249V21.9985H159.784V28.549ZM169.616 28.6633C171.635 28.6633 173.107 27.1399 173.107 25.2738C173.107 23.3949 171.654 21.8842 169.635 21.8842C167.617 21.8842 166.144 23.4076 166.144 25.2738C166.144 27.1526 167.598 28.6633 169.616 28.6633ZM169.635 27.3367C168.474 27.3367 167.648 26.4036 167.648 25.2801C167.648 24.1376 168.454 23.2235 169.616 23.2235C170.778 23.2235 171.603 24.1566 171.603 25.2801C171.603 26.4226 170.797 27.3367 169.635 27.3367ZM174.872 22.0048V23.3632C174.872 26.8923 174.434 27.3874 173.653 27.3874C173.558 27.3874 173.494 27.3811 173.431 27.3684L173.336 28.5554C173.513 28.5998 173.862 28.6379 174.091 28.6379C175.589 28.6379 176.217 27.654 176.217 23.8011V23.306H178.109V28.5554H179.55V22.0048H174.872ZM180.737 28.5554H183.479C185.015 28.5554 185.967 27.7048 185.967 26.3528C185.967 25.0706 185.085 24.2264 183.574 24.2264H182.178V21.9985H180.737V28.549V28.5554ZM183.453 25.4642C184.177 25.4642 184.539 25.7815 184.539 26.3338C184.539 26.9431 184.171 27.2478 183.46 27.2478H182.178V25.4578H183.453V25.4642ZM189.014 21.8906C187.77 21.8906 186.983 22.3285 186.373 22.9696L187.129 23.89C187.567 23.4393 188.093 23.1664 188.9 23.1664C189.528 23.1664 189.96 23.4393 189.96 23.8964C189.96 24.3915 189.547 24.6517 188.792 24.6517H188.049V25.8514H188.804C189.553 25.8514 190.106 26.0735 190.106 26.6194C190.106 27.1272 189.61 27.4065 189.001 27.4065C188.151 27.4065 187.446 27.0955 186.913 26.575L186.145 27.5779C186.849 28.2888 187.681 28.676 189.058 28.676C190.582 28.676 191.546 27.8445 191.546 26.7083C191.546 25.8768 191.02 25.388 190.321 25.1658C190.899 24.9119 191.381 24.474 191.381 23.6615C191.381 22.6396 190.417 21.9033 189.014 21.9033V21.8906ZM195.596 28.6696C197.615 28.6696 199.087 27.1462 199.087 25.2801C199.087 23.4013 197.634 21.8906 195.615 21.8906C193.597 21.8906 192.124 23.414 192.124 25.2801C192.124 27.1589 193.578 28.6696 195.596 28.6696ZM195.615 27.343C194.454 27.343 193.628 26.4099 193.628 25.2864C193.628 24.1439 194.435 23.2299 195.596 23.2299C196.758 23.2299 197.583 24.1629 197.583 25.2864C197.583 26.429 196.777 27.343 195.615 27.343ZM199.982 28.5617H203.099C204.578 28.5617 205.549 27.9651 205.549 26.7654C205.549 25.8641 205.079 25.4261 204.324 25.1341C204.794 24.8739 205.187 24.4613 205.187 23.7186C205.187 23.2489 205.035 22.8871 204.736 22.5888C204.362 22.2143 203.772 22.0112 203.023 22.0112H199.982V28.5617ZM201.385 24.658V23.2743H202.807C203.416 23.2743 203.753 23.5155 203.753 23.9471C203.753 24.4549 203.353 24.658 202.712 24.658H201.385ZM201.385 27.2986V25.8577H203.048C203.791 25.8577 204.114 26.1307 204.114 26.5686C204.114 27.0764 203.733 27.2986 203.092 27.2986H201.379H201.385ZM205.784 28.5617H207.256L207.853 27.0955H210.62L211.217 28.5617H212.721L209.916 21.9604H208.589L205.784 28.5617ZM208.367 25.8196L209.237 23.6932L210.106 25.8196H208.367ZM214.873 28.5617H216.314V23.3378H218.307V22.0112H212.88V23.3378H214.873V28.5617ZM219.024 28.5617H224.014V27.2795H220.459V25.9021H223.55V24.62H220.459V23.2934H223.969V22.0112H219.024V28.5617ZM225.778 22.0112V23.3695C225.778 26.8987 225.34 27.3938 224.559 27.3938C224.464 27.3938 224.401 27.3874 224.337 27.3747L224.242 28.5617C224.42 28.6061 224.769 28.6442 224.997 28.6442C226.495 28.6442 227.124 27.6604 227.124 23.8075V23.3124H229.015V28.5617H230.456V22.0112H225.778ZM236.823 22.0112H233.827C232.291 22.0112 231.358 22.8173 231.358 24.1756C231.358 25.2547 231.929 25.9148 232.76 26.2259L231.161 28.5681H232.843L234.246 26.4734H235.375V28.5681H236.816V22.0175L236.823 22.0112ZM233.922 25.1912C233.217 25.1912 232.817 24.8167 232.817 24.2645C232.817 23.6298 233.249 23.3124 233.947 23.3124H235.382V25.1912H233.922Z" fill="#333333"/>
<path fill-rule="evenodd" clip-rule="evenodd" d="M4.39877 32.9986H18.9153L3.54821 28.8791C1.88519 28.4348 0.609353 27.2225 0 25.7308V28.5935C0 31.0119 1.9804 32.9923 4.39877 32.9923V32.9986ZM4.37338 5.21591C1.9677 5.22861 0 7.20266 0 9.61468V21.5352L4.37338 5.20956V5.21591Z" fill="#333333"/>
<path fill-rule="evenodd" clip-rule="evenodd" d="M28.7094 25.3182L32.4227 11.4491C33.0511 9.11325 31.6483 6.68218 29.3124 6.06013L26.5132 5.31114C27.8462 6.28229 28.7094 7.85011 28.7094 9.61469V25.3182ZM22.6984 4.2892L10.981 1.14722C8.64519 0.518825 6.21412 1.92161 5.59207 4.25746L5.58572 4.28285H22.7047L22.6984 4.2892Z" fill="#0DB14B"/>
<path fill-rule="evenodd" clip-rule="evenodd" d="M23.3839 32.9987C23.9171 32.9987 24.4249 32.9035 24.901 32.7257C26.1451 32.2243 27.2813 31.177 27.6494 29.7932C27.7383 29.4505 27.7827 29.1331 27.7827 28.5999V9.62109C27.7827 7.20272 25.8023 5.22232 23.3839 5.22232H5.33184L0.672825 22.6016C0.0444294 24.9374 1.44721 27.3685 3.78307 27.9906L22.1144 32.9035C22.5778 33.0304 22.9015 33.005 23.3776 33.005L23.3839 32.9987Z" fill="#0DB14B"/>
</svg>
